<svg xmlns="http://www.w3.org/2000/svg" viewBox="0 0 800 100">
  <!-- Frame 1 -->
  <g id="frame1">
    <circle cx="50" cy="30" r="20" fill="#00c4f4"/>
    <line x1="50" y1="50" x2="50" y2="70" stroke="#00c4f4" stroke-width="4"/>
    <line x1="50" y1="70" x2="40" y2="90" stroke="#00c4f4" stroke-width="4"/>
    <line x1="50" y1="70" x2="60" y2="90" stroke="#00c4f4" stroke-width="4"/>
    <line x1="50" y1="60" x2="30" y2="50" stroke="#00c4f4" stroke-width="4"/>
    <line x1="50" y1="60" x2="70" y2="50" stroke="#00c4f4" stroke-width="4"/>
  </g>
  
  <!-- Frame 2 -->
  <g id="frame2">
    <circle cx="150" cy="30" r="20" fill="#00c4f4"/>
    <line x1="150" y1="50" x2="150" y2="70" stroke="#00c4f4" stroke-width="4"/>
    <line x1="150" y1="70" x2="140" y2="90" stroke="#00c4f4" stroke-width="4"/>
    <line x1="150" y1="70" x2="160" y2="90" stroke="#00c4f4" stroke-width="4"/>
    <line x1="150" y1="60" x2="130" y2="50" stroke="#00c4f4" stroke-width="4"/>
    <line x1="150" y1="60" x2="170" y2="50" stroke="#00c4f4" stroke-width="4"/>
  </g>
  
  <!-- Frame 3 -->
  <g id="frame3">
    <circle cx="250" cy="30" r="20" fill="#00c4f4"/>
    <line x1="250" y1="50" x2="250" y2="70" stroke="#00c4f4" stroke-width="4"/>
    <line x1="250" y1="70" x2="240" y2="90" stroke="#00c4f4" stroke-width="4"/>
    <line x1="250" y1="70" x2="260" y2="90" stroke="#00c4f4" stroke-width="4"/>
    <line x1="250" y1="60" x2="230" y2="50" stroke="#00c4f4" stroke-width="4"/>
    <line x1="250" y1="60" x2="270" y2="70" stroke="#00c4f4" stroke-width="4"/>
  </g>
  
  <!-- Frame 4 -->
  <g id="frame4">
    <circle cx="350" cy="30" r="20" fill="#00c4f4"/>
    <line x1="350" y1="50" x2="350" y2="70" stroke="#00c4f4" stroke-width="4"/>
    <line x1="350" y1="70" x2="340" y2="90" stroke="#00c4f4" stroke-width="4"/>
    <line x1="350" y1="70" x2="360" y2="90" stroke="#00c4f4" stroke-width="4"/>
    <line x1="350" y1="60" x2="330" y2="50" stroke="#00c4f4" stroke-width="4"/>
    <line x1="350" y1="60" x2="370" y2="70" stroke="#00c4f4" stroke-width="4"/>
  </g>

  <!-- Frame 5 -->
  <g id="frame5">
    <circle cx="450" cy="30" r="20" fill="#00c4f4"/>
    <line x1="450" y1="50" x2="450" y2="70" stroke="#00c4f4" stroke-width="4"/>
    <line x1="450" y1="70" x2="440" y2="90" stroke="#00c4f4" stroke-width="4"/>
    <line x1="450" y1="70" x2="460" y2="90" stroke="#00c4f4" stroke-width="4"/>
    <line x1="450" y1="60" x2="430" y2="50" stroke="#00c4f4" stroke-width="4"/>
    <line x1="450" y1="60" x2="470" y2="50" stroke="#00c4f4" stroke-width="4"/>
  </g>

  <!-- Frame 6 -->
  <g id="frame6">
    <circle cx="550" cy="30" r="20" fill="#00c4f4"/>
    <line x1="550" y1="50" x2="550" y2="70" stroke="#00c4f4" stroke-width="4"/>
    <line x1="550" y1="70" x2="540" y2="90" stroke="#00c4f4" stroke-width="4"/>
    <line x1="550" y1="70" x2="560" y2="90" stroke="#00c4f4" stroke-width="4"/>
    <line x1="550" y1="60" x2="530" y2="50" stroke="#00c4f4" stroke-width="4"/>
    <line x1="550" y1="60" x2="570" y2="50" stroke="#00c4f4" stroke-width="4"/>
  </g>

  <!-- Frame 7 -->
  <g id="frame7">
    <circle cx="650" cy="30" r="20" fill="#00c4f4"/>
    <line x1="650" y1="50" x2="650" y2="70" stroke="#00c4f4" stroke-width="4"/>
    <line x1="650" y1="70" x2="640" y2="90" stroke="#00c4f4" stroke-width="4"/>
    <line x1="650" y1="70" x2="660" y2="90" stroke="#00c4f4" stroke-width="4"/>
    <line x1="650" y1="60" x2="630" y2="50" stroke="#00c4f4" stroke-width="4"/>
    <line x1="650" y1="60" x2="670" y2="70" stroke="#00c4f4" stroke-width="4"/>
  </g>

  <!-- Frame 8 -->
  <g id="frame8">
    <circle cx="750" cy="30" r="20" fill="#00c4f4"/>
    <line x1="750" y1="50" x2="750" y2="70" stroke="#00c4f4" stroke-width="4"/>
    <line x1="750" y1="70" x2="740" y2="90" stroke="#00c4f4" stroke-width="4"/>
    <line x1="750" y1="70" x2="760" y2="90" stroke="#00c4f4" stroke-width="4"/>
    <line x1="750" y1="60" x2="730" y2="50" stroke="#00c4f4" stroke-width="4"/>
    <line x1="750" y1="60" x2="770" y2="70" stroke="#00c4f4" stroke-width="4"/>
  </g>
</svg>
